<?xml version="1.0" encoding="iso-8859-1"?>
<!-- Generator: Adobe Illustrator 19.0.0, SVG Export Plug-In . SVG Version: 6.00 Build 0)  -->
<svg width="58.00000000000001" height="58.00000000000001" xmlns="http://www.w3.org/2000/svg" xmlns:svg="http://www.w3.org/2000/svg">
 <g>
  <title>Layer 1</title>
  <g id="svg_1">
   <g id="svg_2">
    <path fill="#ffffff" d="m57.496,18.98184l-28,-16c-0.308,-0.176 -0.685,-0.176 -0.992,0l-28,16c-0.394,0.225 -0.587,0.687 -0.47,1.125c0.116,0.438 0.512,0.743 0.966,0.743l3,0l0,32l-3,0l0,2l4,0l5,0l10,0l5,0l9,0l5,0l9,0l5,0l4,0l0,-2l-3,0l0,-32l3,0c0.454,0 0.85,-0.305 0.966,-0.743c0.117,-0.439 -0.076,-0.901 -0.47,-1.125zm-28.496,-13.981l24.234,13.849l-0.234,0l-5,0l-38,0l-5,0l-0.234,0l24.234,-13.849zm4,47.849l-7,0l7,0zm-14,0l-8,0l0,-20l36,0l0,20l-7,0l-21,0zm28,-22l-36,0l0,-4l36,0l0,4zm0,-6l-36,0l0,-4l36,0l0,4zm-41,28l0,-32l3,0l0,5l0,6l0,21l-3,0zm15,0l3,0l-3,0zm14,0l3,0l-3,0zm17,0l-3,0l0,-21l0,-6l0,-5l3,0l0,32z" id="svg_3"/>
   </g>
  </g>
 </g>
</svg>